<svg data-name="Layer 2" viewBox="0 0 35 35" xmlns="http://www.w3.org/2000/svg"><path d="M29.81 31.3a2 2 0 0 1-.34 0l-2.81-.54a11.53 11.53 0 0 1-2.41.25c-5.7 0-10.34-4.17-10.34-9.29s4.64-9.29 10.34-9.29 10.35 4.14 10.35 9.26A8.76 8.76 0 0 1 31.82 28l-.17 1.62a1.85 1.85 0 0 1-1.84 1.66Zm-3.24-.59Zm.17 0Zm3.82-1.18Zm-3.91-1a2 2 0 0 1 .34 0l2.51.47.14-1.37a1.83 1.83 0 0 1 .58-1.15 6.58 6.58 0 0 0 2.18-4.82c0-3.91-3.65-7.09-8.15-7.09s-8.14 3.18-8.14 7.09 3.65 7.09 8.14 7.09a9 9 0 0 0 2-.22 1.72 1.72 0 0 1 .4-.01Z" fill="#827668" class="fill-000000"></path><path d="M6.26 26.15a1.83 1.83 0 0 1-.88-.23 1.86 1.86 0 0 1-1-1.59v-2.25a10.14 10.14 0 0 1-4-7.91C.4 8.32 5.75 3.56 12.32 3.56A12.09 12.09 0 0 1 23 9.39a1.1 1.1 0 1 1-1.91 1.09 9.91 9.91 0 0 0-8.73-4.72C7 5.76 2.6 9.53 2.6 14.17a8 8 0 0 0 3.25 6.28 1.81 1.81 0 0 1 .72 1.42v1.81l1.88-1.15a1.83 1.83 0 0 1 1.37-.22 10.71 10.71 0 0 0 1.38.22 1.1 1.1 0 1 1-.2 2.19 13.16 13.16 0 0 1-1.51-.24l-2.26 1.39a1.85 1.85 0 0 1-.97.28Z" fill="#827668" class="fill-000000"></path><circle cx="8.48" cy="12.17" r="1.24" fill="#827668" class="fill-000000"></circle><circle cx="15.77" cy="12.17" r="1.24" fill="#827668" class="fill-000000"></circle><circle cx="20.09" cy="19.2" r="1.08" fill="#827668" class="fill-000000"></circle><circle cx="26.79" cy="19.2" r="1.08" fill="#827668" class="fill-000000"></circle></svg>