<?xml version="1.0" ?><svg viewBox="0 0 512 512" xmlns="http://www.w3.org/2000/svg"><defs><style>.cls-1{fill:#00a16c;}.cls-2{fill:#00895c;}.cls-3{fill:#00b378;}.cls-4{fill:#096;}.cls-5{fill:#4cb08e;}.cls-6{fill:#59cea7;}.cls-7{fill:#0071af;}.cls-8{fill:#fda5a3;}.cls-9{fill:#bdecdc;}.cls-10{fill:#ec9090;}.cls-11{fill:#d27676;}.cls-12{fill:#7db6d6;}.cls-13{fill:#006095;}.cls-14{fill:#6b9bb6;}.cls-15{fill:#b36565;}.cls-16{fill:#d78d8b;}.cls-17{fill:#cbe2ef;}</style></defs><title/><g data-name="/ FILLED_OUTLINE" id="_FILLED_OUTLINE"><path class="cls-1" d="M292.4223,368.84448A16.00015,16.00015,0,0,0,278.11145,360h-44.2229a16.00015,16.00015,0,0,0-14.31085,8.84448L208,392h96Z"/><path class="cls-2" d="M232.84477,392H304l-11.9471-23.89419A85.0761,85.0761,0,0,1,232.84477,392Z"/><circle class="cls-3" cx="256" cy="168" r="144"/><path class="cls-4" d="M196.79523,299.3042a144.06958,144.06958,0,0,0,190.509-190.509A288.64625,288.64625,0,0,1,196.79523,299.3042Z"/><path class="cls-5" d="M341.65674,242.34326l-11.31348,11.31348L352.004,275.3175A144.92216,144.92216,0,0,0,363.3175,264.004Z"/><path class="cls-6" d="M264,24.22473C261.3512,24.07959,258.685,24,256,24s-5.3512.07959-8,.22473V56h16Z"/><path class="cls-6" d="M148.6825,71.996l21.66076,21.66077,11.31348-11.31348L159.996,60.6825A144.92216,144.92216,0,0,0,148.6825,71.996Z"/><path class="cls-6" d="M112.22473,176H144V160H112.22473c-.14508,2.6488-.22473,5.31494-.22473,8S112.07965,173.3512,112.22473,176Z"/><path class="cls-6" d="M148.6825,264.004A144.92216,144.92216,0,0,0,159.996,275.3175l21.66077-21.66076-11.31348-11.31348Z"/><path class="cls-7" d="M298.08062,184H472a16,16,0,0,0,16-16V40a16,16,0,0,0-16-16H360a32,32,0,0,0-32,32v82.3875a16,16,0,0,1-3.5061,9.99512L297.29976,182.3753A1,1,0,0,0,298.08062,184Z"/><path class="cls-8" d="M484.68628,284.68628l-17.37256-17.37256a16,16,0,0,0-22.62744,0L431.4845,280.5155a15.81634,15.81634,0,0,0-2.79822-3.82922l-1.37256-1.37256A16,16,0,0,0,400,286.62744v18.74512a16.00029,16.00029,0,0,1-4.68628,11.31372L384,328l32,32,19.31372-19.31372A15.99983,15.99983,0,0,1,446.62744,336h2.74512a16.00034,16.00034,0,0,0,11.31372-4.68628l24-24A16,16,0,0,0,484.68628,284.68628Z"/><path class="cls-8" d="M256.00006,200h-.00012A55.99994,55.99994,0,0,0,200,256v32.80408a56.00005,56.00005,0,0,0,16.402,39.5979l4.2843,4.2843A38.62726,38.62726,0,0,1,232,360h48a38.62726,38.62726,0,0,1,11.31372-27.31372l4.2843-4.2843A56.00005,56.00005,0,0,0,312,288.80408V256A55.99994,55.99994,0,0,0,256.00006,200Z"/><path class="cls-3" d="M376,320l-67.31372,67.31372A16.00034,16.00034,0,0,1,297.37256,392H214.62744a16.00034,16.00034,0,0,1-11.31372-4.68628L136,320,88,368l75.31372,75.31372A15.99987,15.99987,0,0,1,168,454.62744V496H344V454.62744a15.99987,15.99987,0,0,1,4.68628-11.31372L424,368Z"/><polygon class="cls-9" points="264 176 176 176 176 160 248 160 248 72 264 72 264 176"/><path class="cls-10" d="M424.97022,304.97022l-1.94044-1.94044a6.62775,6.62775,0,0,1,0-9.373h0a8.01391,8.01391,0,0,0,2.33441-6.0845,6.36225,6.36225,0,0,1,3.05018-5.94252l2.86424-1.65586a6.5977,6.5977,0,0,1,9.857,4.6525,24.03607,24.03607,0,0,1-6.79238,20.34385h0A6.62775,6.62775,0,0,1,424.97022,304.97022Z"/><path class="cls-8" d="M116.68628,316.68628A16.00029,16.00029,0,0,1,112,305.37256V286.62744a16,16,0,0,0-27.31372-11.31372l-1.37256,1.37256a15.81634,15.81634,0,0,0-2.79822,3.82922L67.31372,267.31372a16,16,0,0,0-22.62744,0L27.31372,284.68628a16,16,0,0,0,0,22.62744l24,24A16.00034,16.00034,0,0,0,62.62744,336h2.74512a15.99983,15.99983,0,0,1,11.31372,4.68628L96,360l32-32Z"/><path class="cls-11" d="M200,256v32.80408a56.00005,56.00005,0,0,0,16.402,39.5979l4.2843,4.2843A38.60712,38.60712,0,0,1,228.52,344h54.96a38.60712,38.60712,0,0,1,7.83374-11.31372l4.2843-4.2843A56.00005,56.00005,0,0,0,312,288.80408V256a55.99994,55.99994,0,0,0-55.99994-56h-.00012A55.99994,55.99994,0,0,0,200,256Z"/><path class="cls-10" d="M87.02978,304.97022l1.94044-1.94044a6.62775,6.62775,0,0,0,0-9.373h0a8.01391,8.01391,0,0,1-2.33441-6.0845,6.36225,6.36225,0,0,0-3.05018-5.94252l-2.86424-1.65586a6.5977,6.5977,0,0,0-9.857,4.6525,24.03607,24.03607,0,0,0,6.79238,20.34385h0A6.62775,6.62775,0,0,0,87.02978,304.97022Z"/><rect class="cls-12" height="48" rx="8" width="64" x="376" y="104"/><path class="cls-13" d="M328.00018,184H472a16,16,0,0,0,16-16V40a15.98985,15.98985,0,0,0-.46222-3.75793A160.01192,160.01192,0,0,1,328.00018,184Z"/><path class="cls-14" d="M440,138.25586A160.83509,160.83509,0,0,1,423.99908,152H432a8,8,0,0,0,8-8Z"/><path class="cls-15" d="M257.71313,344H283.48a38.60712,38.60712,0,0,1,7.83374-11.31372l4.2843-4.2843A56.00005,56.00005,0,0,0,312,288.80408V256c0-1.1106-.04132-2.21118-.1051-3.30566A111.94747,111.94747,0,0,1,257.71313,344Z"/><path class="cls-16" d="M257.66626,344a111.36192,111.36192,0,0,1-25.94788,11.43677A38.60228,38.60228,0,0,1,232,360h48a38.61224,38.61224,0,0,1,3.48-16Z"/><path class="cls-16" d="M394.4339,317.56616,384,328l32,32,10.4339-10.43384A112.59783,112.59783,0,0,1,394.4339,317.56616Z"/><path class="cls-16" d="M87.78455,351.78455,96,360l32-32-8.21545-8.21545A104.54532,104.54532,0,0,1,87.78455,351.78455Z"/><path class="cls-4" d="M176.00024,496H344V454.62744a15.99987,15.99987,0,0,1,4.68628-11.31372L424,368l-20.69971-20.69971C365.00629,434.83093,277.65381,496,176.00024,496Z"/><path class="cls-17" d="M392,112H376V80a32,32,0,0,1,64,0H424a16,16,0,0,0-32,0Z"/><polygon points="264 72 248 72 248 160 176 160 176 176 264 176 264 72"/><path d="M384,160h48a16.01833,16.01833,0,0,0,16-16V112a16.01833,16.01833,0,0,0-16-16H392V80a16,16,0,0,1,32,0h16a32,32,0,0,0-64,0V98.165A15.99656,15.99656,0,0,0,368,112v32A16.01833,16.01833,0,0,0,384,160Zm0-48h48l.01025,31.99951L432,144H384Z"/><path d="M490.34326,279.02979l-17.373-17.373a24.02666,24.02666,0,0,0-33.94042,0l-7.079,7.079A23.97772,23.97772,0,0,0,392,286.62744v18.74512a7.94834,7.94834,0,0,1-2.34326,5.65723L384,316.68652l-8-8-69.80841,69.80835-6.614-13.22778a23.89344,23.89344,0,0,0-11.05658-10.90063,30.40159,30.40159,0,0,1,8.44915-16.0232l4.28467-4.28467a63.66224,63.66224,0,0,0,16.10248-26.9768A152.07513,152.07513,0,0,0,406.093,192H472a24.02718,24.02718,0,0,0,24-24V40a24.02718,24.02718,0,0,0-24-24H360a39.98767,39.98767,0,0,0-33.08051,17.54028A152.0608,152.0608,0,0,0,256,16c-83.813,0-152,68.187-152,152a151.75164,151.75164,0,0,0,90.64124,139.07666,63.66131,63.66131,0,0,0,16.10388,26.98193l4.28467,4.28467a30.40159,30.40159,0,0,1,8.44915,16.0232,23.89344,23.89344,0,0,0-11.05658,10.90063l-6.61395,13.22778L136,308.68652l-8,8-5.65674-5.65673A7.94834,7.94834,0,0,1,120,305.37256V286.62744a23.97772,23.97772,0,0,0-39.95081-17.89172l-7.079-7.079a24.02666,24.02666,0,0,0-33.94042,0l-17.373,17.373a24.02666,24.02666,0,0,0,0,33.94042l24,24A23.843,23.843,0,0,0,62.62744,344h2.74512a7.94834,7.94834,0,0,1,5.65723,2.34326L84.68652,360l-8,8,80.97022,80.97021A7.94834,7.94834,0,0,1,160,454.62744V496h16V454.62744a23.843,23.843,0,0,0-7.02979-16.9707L99.314,368,136,331.314l61.65674,61.65625A23.843,23.843,0,0,0,214.62744,400h82.74512a23.843,23.843,0,0,0,16.9707-7.02979L376,331.314,412.686,368l-69.65625,69.65674A23.843,23.843,0,0,0,336,454.62744V496h16V454.62744a7.94834,7.94834,0,0,1,2.34326-5.65723L435.31348,368l-8-8,13.65673-13.65674A7.94834,7.94834,0,0,1,446.62744,344h2.74512a23.843,23.843,0,0,0,16.9707-7.02979l24-24A24.02666,24.02666,0,0,0,490.34326,279.02979ZM96,348.68652,82.34326,335.02979A23.843,23.843,0,0,0,65.37256,328H62.62744a7.94834,7.94834,0,0,1-5.65723-2.34326l-24-24a8.00889,8.00889,0,0,1,0-11.31348l17.37305-17.373a8.00889,8.00889,0,0,1,11.31348,0l9.621,9.621a23.98153,23.98153,0,0,0,6.379,22.379l4.68652,4.68653,11.31348-11.31348-4.68653-4.68652a8.00889,8.00889,0,0,1,0-11.31348l1.37305-1.373A8,8,0,0,1,104,286.62744v18.74512a23.843,23.843,0,0,0,7.02979,16.9707L116.68652,328ZM330.7417,153.37988A24.09176,24.09176,0,0,0,336,138.3877V56a24.0275,24.0275,0,0,1,24-24H472a8.00917,8.00917,0,0,1,8,8V168a8.00917,8.00917,0,0,1-8,8H312.64551ZM192,256v32.01733a135.9832,135.9832,0,0,1-26.37616-18.32763l16.0329-16.033-11.31348-11.31348-16.03821,16.03821A135.74269,135.74269,0,0,1,120.25574,176H144V160H120.24164a135.44671,135.44671,0,0,1,34.152-82.293l15.94964,15.94971,11.31348-11.31348L165.70709,66.39355A135.44582,135.44582,0,0,1,248,32.2417V56h16V32.24707a135.89617,135.89617,0,0,1,56.73743,16.12976A40.02243,40.02243,0,0,0,320,56v82.3877a8.02951,8.02951,0,0,1-1.75293,4.99755l-27.19385,33.99219A8.99987,8.99987,0,0,0,298.08057,192H389.8858a135.78035,135.78035,0,0,1-32.2276,66.34473l-16.00146-16.00147-11.31348,11.31348L346.351,269.66455A136.01,136.01,0,0,1,320,288.01855V256a64,64,0,0,0-128,0Zm30.05859,66.74512A47.68523,47.68523,0,0,1,208,288.8042V256a48,48,0,0,1,96,0v32.8042a47.68523,47.68523,0,0,1-14.05859,33.94092l-4.28467,4.28467A46.2757,46.2757,0,0,0,272.6936,352H239.3064a46.2757,46.2757,0,0,0-12.96314-24.97021ZM220.94409,384l5.78882-11.57764A7.95684,7.95684,0,0,1,233.88867,368h44.22266a7.95684,7.95684,0,0,1,7.15576,4.42236L291.05591,384Zm258.0857-82.34326-24,24A7.94834,7.94834,0,0,1,449.37256,328h-2.74512a23.843,23.843,0,0,0-16.9707,7.02979L416,348.68652,395.31348,328l5.65673-5.65674A23.843,23.843,0,0,0,408,305.37256V286.62744a8,8,0,0,1,13.65674-5.65723l1.373,1.373a8.00889,8.00889,0,0,1,0,11.31348l-4.68653,4.68652,11.31348,11.31348,4.68652-4.68653a23.98153,23.98153,0,0,0,6.379-22.379l9.621-9.621a8.00889,8.00889,0,0,1,11.31348,0l17.373,17.373A8.00889,8.00889,0,0,1,479.02979,301.65674Z"/></g></svg>